<mxfile host="app.diagrams.net" agent="Mozilla/5.0 (Windows NT 10.0; Win64; x64; rv:141.0) Gecko/20100101 Firefox/141.0" version="28.0.7">
  <diagram name="PÃ¡gina-1" id="TMDoCD8hCcpHIJEySzZF">
    <mxGraphModel dx="1026" dy="573" grid="1" gridSize="10" guides="1" tooltips="1" connect="1" arrows="1" fold="1" page="1" pageScale="1" pageWidth="827" pageHeight="1169" math="0" shadow="0">
      <root>
        <mxCell id="0" />
        <mxCell id="1" parent="0" />
        <mxCell id="UQOomTZAaCyZAPaUyG3R-46" style="edgeStyle=orthogonalEdgeStyle;rounded=0;orthogonalLoop=1;jettySize=auto;html=1;entryX=0.5;entryY=0.5;entryDx=0;entryDy=-15;entryPerimeter=0;" parent="1" edge="1">
          <mxGeometry relative="1" as="geometry">
            <mxPoint x="414" y="530" as="targetPoint" />
          </mxGeometry>
        </mxCell>
        <mxCell id="QcQdOetUA6qP5Ii0NC-2-26" style="edgeStyle=orthogonalEdgeStyle;rounded=0;orthogonalLoop=1;jettySize=auto;html=1;" edge="1" parent="1" target="QcQdOetUA6qP5Ii0NC-2-22">
          <mxGeometry relative="1" as="geometry">
            <mxPoint x="140" y="710" as="sourcePoint" />
          </mxGeometry>
        </mxCell>
        <mxCell id="QcQdOetUA6qP5Ii0NC-2-73" style="edgeStyle=orthogonalEdgeStyle;rounded=0;orthogonalLoop=1;jettySize=auto;html=1;" edge="1" parent="1" source="QcQdOetUA6qP5Ii0NC-2-71" target="QcQdOetUA6qP5Ii0NC-2-72">
          <mxGeometry relative="1" as="geometry" />
        </mxCell>
        <mxCell id="QcQdOetUA6qP5Ii0NC-2-71" value="User click send button" style="html=1;dashed=0;whiteSpace=wrap;shape=mxgraph.dfd.start" vertex="1" parent="1">
          <mxGeometry x="374" y="80" width="80" height="30" as="geometry" />
        </mxCell>
        <mxCell id="QcQdOetUA6qP5Ii0NC-2-88" style="edgeStyle=orthogonalEdgeStyle;rounded=0;orthogonalLoop=1;jettySize=auto;html=1;" edge="1" parent="1" source="QcQdOetUA6qP5Ii0NC-2-72" target="QcQdOetUA6qP5Ii0NC-2-87">
          <mxGeometry relative="1" as="geometry" />
        </mxCell>
        <mxCell id="QcQdOetUA6qP5Ii0NC-2-72" value="Send info to Back-End" style="html=1;dashed=0;whiteSpace=wrap;" vertex="1" parent="1">
          <mxGeometry x="364" y="170" width="100" height="50" as="geometry" />
        </mxCell>
        <mxCell id="QcQdOetUA6qP5Ii0NC-2-80" style="edgeStyle=orthogonalEdgeStyle;rounded=0;orthogonalLoop=1;jettySize=auto;html=1;" edge="1" parent="1" source="QcQdOetUA6qP5Ii0NC-2-75" target="QcQdOetUA6qP5Ii0NC-2-79">
          <mxGeometry relative="1" as="geometry" />
        </mxCell>
        <mxCell id="QcQdOetUA6qP5Ii0NC-2-75" value="&lt;div&gt;Create a UserFeedback&lt;/div&gt;object" style="html=1;dashed=0;whiteSpace=wrap;" vertex="1" parent="1">
          <mxGeometry x="364" y="420" width="100" height="50" as="geometry" />
        </mxCell>
        <mxCell id="QcQdOetUA6qP5Ii0NC-2-95" style="edgeStyle=orthogonalEdgeStyle;rounded=0;orthogonalLoop=1;jettySize=auto;html=1;" edge="1" parent="1" source="QcQdOetUA6qP5Ii0NC-2-79" target="QcQdOetUA6qP5Ii0NC-2-85">
          <mxGeometry relative="1" as="geometry" />
        </mxCell>
        <mxCell id="QcQdOetUA6qP5Ii0NC-2-79" value="Add UserFeedback to operations list" style="html=1;dashed=0;whiteSpace=wrap;" vertex="1" parent="1">
          <mxGeometry x="364" y="530" width="100" height="50" as="geometry" />
        </mxCell>
        <mxCell id="QcQdOetUA6qP5Ii0NC-2-82" value="End Operation" style="html=1;dashed=0;whiteSpace=wrap;shape=mxgraph.dfd.start" vertex="1" parent="1">
          <mxGeometry x="716" y="540" width="92" height="30" as="geometry" />
        </mxCell>
        <mxCell id="QcQdOetUA6qP5Ii0NC-2-90" style="edgeStyle=orthogonalEdgeStyle;rounded=0;orthogonalLoop=1;jettySize=auto;html=1;" edge="1" parent="1" source="QcQdOetUA6qP5Ii0NC-2-85" target="QcQdOetUA6qP5Ii0NC-2-82">
          <mxGeometry relative="1" as="geometry" />
        </mxCell>
        <mxCell id="QcQdOetUA6qP5Ii0NC-2-85" value="ReciveFeedback" style="shape=process;whiteSpace=wrap;html=1;backgroundOutline=1;" vertex="1" parent="1">
          <mxGeometry x="530" y="525" width="120" height="60" as="geometry" />
        </mxCell>
        <mxCell id="QcQdOetUA6qP5Ii0NC-2-91" style="edgeStyle=orthogonalEdgeStyle;rounded=0;orthogonalLoop=1;jettySize=auto;html=1;fillColor=#d5e8d4;strokeColor=#82b366;" edge="1" parent="1" source="QcQdOetUA6qP5Ii0NC-2-87" target="QcQdOetUA6qP5Ii0NC-2-75">
          <mxGeometry relative="1" as="geometry" />
        </mxCell>
        <mxCell id="QcQdOetUA6qP5Ii0NC-2-93" value="No" style="edgeLabel;html=1;align=center;verticalAlign=middle;resizable=0;points=[];" vertex="1" connectable="0" parent="QcQdOetUA6qP5Ii0NC-2-91">
          <mxGeometry y="1" relative="1" as="geometry">
            <mxPoint as="offset" />
          </mxGeometry>
        </mxCell>
        <mxCell id="QcQdOetUA6qP5Ii0NC-2-92" style="edgeStyle=orthogonalEdgeStyle;rounded=0;orthogonalLoop=1;jettySize=auto;html=1;fillColor=#f8cecc;strokeColor=#b85450;" edge="1" parent="1" source="QcQdOetUA6qP5Ii0NC-2-87" target="QcQdOetUA6qP5Ii0NC-2-85">
          <mxGeometry relative="1" as="geometry" />
        </mxCell>
        <mxCell id="QcQdOetUA6qP5Ii0NC-2-94" value="Yes" style="edgeLabel;html=1;align=center;verticalAlign=middle;resizable=0;points=[];" vertex="1" connectable="0" parent="QcQdOetUA6qP5Ii0NC-2-92">
          <mxGeometry x="-0.7783" y="1" relative="1" as="geometry">
            <mxPoint x="84" y="1" as="offset" />
          </mxGeometry>
        </mxCell>
        <mxCell id="QcQdOetUA6qP5Ii0NC-2-87" value="&lt;div&gt;Operation&lt;/div&gt;&lt;div&gt;Already&lt;/div&gt;&lt;div&gt;Open?&lt;/div&gt;" style="shape=rhombus;html=1;dashed=0;whiteSpace=wrap;perimeter=rhombusPerimeter;" vertex="1" parent="1">
          <mxGeometry x="358" y="280" width="112" height="80" as="geometry" />
        </mxCell>
      </root>
    </mxGraphModel>
  </diagram>
</mxfile>
